# xmcd
#
# Track frame offsets:
#	150
#	19278
#	34023
#	51950
#	66788
#	85905
#	100305
#	117170
#	138178
#	160535
#	182755
#
# Disc length: 2634 seconds
#
# Revision: 4
# Processed by: cddbd v1.5.2PL0 Copyright (c) Steve Scherf et al.
# Submitted via: EasyCDDAExtractor 15.3.0.1
#
DISCID=8a0a480b
DTITLE=Ricky Martin
DYEAR=1991
DGENRE=Latin
TTITLE0=Fuego Contra Fuego
TTITLE1=Dime Que Me Quieres (Bring A Little Lovin)
TTITLE2=Vuelo
TTITLE3=Conmigo Nadie Puede (Comigo Ninguem Pode)
TTITLE4=Te Voy A Conquistar (Vou Te Conquistar)
TTITLE5=Juego De Ajedrez
TTITLE6=Corazon Entre Nubes (Coracao Nas Nuvens)
TTITLE7=Ser Feliz
TTITLE8=El Amor De Mi Vida
TTITLE9=Susana
TTITLE10=Popotitos
EXTD=
EXTT0=
EXTT1=
EXTT2=
EXTT3=
EXTT4=
EXTT5=
EXTT6=
EXTT7=
EXTT8=
EXTT9=
EXTT10=
PLAYORDER=
